<svg id="Layer_1" xmlns="http://www.w3.org/2000/svg" x="0" y="0" viewBox="0 0 1024 1024" xml:space="preserve"><style>.st1{fill:#fff}</style><path d="M132.37 1024a30.006 30.006 0 0 1-29.61-34.81l85.68-527.31c4.56-28.09 19.02-53.72 40.7-72.16s49.29-28.6 77.75-28.6H660.2l19.74-121.02H647c-14.69 0-28.57-6.42-38.08-17.6a49.918 49.918 0 0 1-11.27-40.41l22.74-140.1C624.33 17.66 645.09 0 669.74 0h131.87c35.25 0 68.57 15.4 91.41 42.25 22.84 26.85 32.69 62.21 27.04 97l-53.04 326.22A49.949 49.949 0 0 1 844 499.95L548.29 683.17c-17.91 11.1-41.02 9.73-57.5-3.4L352.94 569.89c-12.96-10.33-15.09-29.2-4.76-42.16 10.33-12.96 29.2-15.09 42.16-4.76l132.34 105.49 285.85-177.1 52.3-321.73c2.83-17.4-2.1-35.08-13.52-48.5A59.867 59.867 0 0 0 801.61 60H678.25l-19.5 120.1h32.96c14.69 0 28.58 6.42 38.1 17.62s13.62 25.93 11.25 40.43l-23 141.02c-3.96 24.31-24.72 41.95-49.35 41.95H306.88c-29.57 0-54.48 21.19-59.22 50.38l-75.12 462.3 105.36-65.3c7.92-4.91 17.03-7.5 26.34-7.5H690.9c29.57 0 54.48-21.19 59.22-50.38l24.06-148.05c2.66-16.35 18.07-27.46 34.42-24.8s27.46 18.07 24.8 34.42l-24.06 148.05a120.15 120.15 0 0 1-40.7 72.16c-21.67 18.45-49.29 28.6-77.75 28.6h-383.8l-158.91 98.5c-4.85 3-10.34 4.5-15.81 4.5z" style="fill: rgb(255, 255, 255);"></path></svg>